<svg width="3946" height="1893" xmlns="http://www.w3.org/2000/svg" xmlns:xlink="http://www.w3.org/1999/xlink" xml:space="preserve" overflow="hidden"><defs><clipPath id="clip0"><rect x="165" y="343" width="3946" height="1893"/></clipPath><clipPath id="clip1"><rect x="165" y="343" width="3946" height="1893"/></clipPath><clipPath id="clip2"><rect x="165" y="354" width="2185" height="1767"/></clipPath><clipPath id="clip3"><rect x="165" y="354" width="2185" height="1767"/></clipPath><clipPath id="clip4"><rect x="165" y="354" width="2185" height="1767"/></clipPath><clipPath id="clip5"><rect x="165" y="354" width="2185" height="1767"/></clipPath><clipPath id="clip6"><rect x="165" y="354" width="2185" height="1767"/></clipPath><clipPath id="clip7"><rect x="166" y="576" width="1251" height="1546"/></clipPath><clipPath id="clip8"><rect x="166" y="576" width="1251" height="1546"/></clipPath><clipPath id="clip9"><rect x="1376" y="576" width="974" height="1546"/></clipPath><clipPath id="clip10"><rect x="1376" y="576" width="974" height="1546"/></clipPath><clipPath id="clip11"><rect x="3017" y="558" width="1060" height="1509"/></clipPath><clipPath id="clip12"><rect x="3017" y="558" width="1060" height="1509"/></clipPath><clipPath id="clip13"><rect x="2568" y="558" width="459" height="1677"/></clipPath><clipPath id="clip14"><rect x="2568" y="558" width="458" height="1677"/></clipPath></defs><g clip-path="url(#clip0)" transform="translate(-165 -343)"><g clip-path="url(#clip1)"><g clip-path="url(#clip2)"><g clip-path="url(#clip3)"><g clip-path="url(#clip4)"><g clip-path="url(#clip5)"><g clip-path="url(#clip6)"><g clip-path="url(#clip7)"><g clip-path="url(#clip8)"><path d="M408.674 1543.62 519.516 1543.62" stroke="#000000" stroke-width="2.52225" stroke-linecap="round" stroke-linejoin="round" stroke-miterlimit="10" stroke-opacity="1" fill="none" fill-rule="nonzero" transform="matrix(1.00004 0 0 1 182.338 591.661)"/><text fill="#000000" fill-opacity="1" font-family="Arial,Arial_MSFontService,sans-serif" font-style="normal" font-variant="normal" font-weight="400" font-stretch="normal" font-size="10" text-anchor="start" direction="ltr" writing-mode="lr-tb" unicode-bidi="normal" text-decoration="none" transform="matrix(2.52236 0 0 2.52225 626.516 2173)">0.3</text><path d="M928.191 915.581 189.244 915.581 189.244 844.533" stroke="#000000" stroke-width="37.8339" stroke-linecap="butt" stroke-linejoin="miter" stroke-miterlimit="10" stroke-opacity="1" fill="none" fill-rule="nonzero" transform="matrix(1.00004 0 0 1 182.338 591.661)"/><path d="M928.191 1341.84 189.244 1341.84 189.244 844.533" stroke="#000000" stroke-width="37.8339" stroke-linecap="butt" stroke-linejoin="miter" stroke-miterlimit="10" stroke-opacity="1" fill="none" fill-rule="nonzero" transform="matrix(1.00004 0 0 1 182.338 591.661)"/><path d="M928.191 489.318 558.717 489.318 558.717 276.187" stroke="#000000" stroke-width="37.8339" stroke-linecap="butt" stroke-linejoin="miter" stroke-miterlimit="10" stroke-opacity="1" fill="none" fill-rule="nonzero" transform="matrix(1.00004 0 0 1 182.338 591.661)"/><path d="M928.191 63.0564 558.717 63.0564 558.717 276.187" stroke="#000000" stroke-width="37.8339" stroke-linecap="butt" stroke-linejoin="miter" stroke-miterlimit="10" stroke-opacity="1" fill="none" fill-rule="nonzero" transform="matrix(1.00004 0 0 1 182.338 591.661)"/><path d="M558.717 276.187 189.244 276.187 189.244 844.533" stroke="#000000" stroke-width="37.8339" stroke-linecap="butt" stroke-linejoin="miter" stroke-miterlimit="10" stroke-opacity="1" fill="none" fill-rule="nonzero" transform="matrix(1.00004 0 0 1 182.338 591.661)"/><path d="M0 844.533 189.244 844.533" stroke="#000000" stroke-width="37.8339" stroke-linecap="butt" stroke-linejoin="miter" stroke-miterlimit="10" stroke-opacity="1" fill="none" fill-rule="nonzero" transform="matrix(1.00004 0 0 1 182.338 591.661)"/><text fill="#000000" fill-opacity="1" font-family="Arial,Arial_MSFontService,sans-serif" font-style="normal" font-variant="normal" font-weight="400" font-stretch="normal" font-size="42" text-anchor="start" direction="ltr" writing-mode="lr-tb" unicode-bidi="normal" text-decoration="none" transform="matrix(2.52236 0 0 2.52225 1135.79 1547)">HT1*</text><text fill="#000000" fill-opacity="1" font-family="Arial,Arial_MSFontService,sans-serif" font-style="normal" font-variant="normal" font-weight="400" font-stretch="normal" font-size="42" text-anchor="start" direction="ltr" writing-mode="lr-tb" unicode-bidi="normal" text-decoration="none" transform="matrix(2.52236 0 0 2.52225 1135.79 1974)">HT3</text><text fill="#000000" fill-opacity="1" font-family="Arial,Arial_MSFontService,sans-serif" font-style="normal" font-variant="normal" font-weight="400" font-stretch="normal" font-size="42" text-anchor="start" direction="ltr" writing-mode="lr-tb" unicode-bidi="normal" text-decoration="none" transform="matrix(2.52236 0 0 2.52225 1135.79 1121)">HT1</text><text fill="#000000" fill-opacity="1" font-family="Arial,Arial_MSFontService,sans-serif" font-style="normal" font-variant="normal" font-weight="400" font-stretch="normal" font-size="42" text-anchor="start" direction="ltr" writing-mode="lr-tb" unicode-bidi="normal" text-decoration="none" transform="matrix(2.52236 0 0 2.52225 1135.79 695)">HT2</text></g></g><g clip-path="url(#clip9)"><g clip-path="url(#clip10)"><path d="M413.371 1541.2 518.398 1541.2" stroke="#000000" stroke-width="2.51829" stroke-linecap="round" stroke-linejoin="round" stroke-miterlimit="10" stroke-opacity="1" fill="none" fill-rule="nonzero" transform="matrix(-1 0 0 1.00157 2334.89 591.661)"/><text fill="#000000" fill-opacity="1" font-family="Arial,Arial_MSFontService,sans-serif" font-style="normal" font-variant="normal" font-weight="400" font-stretch="normal" font-size="10" text-anchor="start" direction="ltr" writing-mode="lr-tb" unicode-bidi="normal" text-decoration="none" transform="matrix(-2.5183 0 0 2.52225 1888.91 2173)">0.4</text><path d="M669.203 701.345 406.636 701.345 406.636 1020.54" stroke="#000000" stroke-width="37.7744" stroke-linecap="butt" stroke-linejoin="miter" stroke-miterlimit="10" stroke-opacity="1" fill="none" fill-rule="nonzero" transform="matrix(-1 0 0 1.00157 2334.89 591.661)"/><path d="M931.772 488.549 669.203 488.549 669.203 701.345" stroke="#000000" stroke-width="37.7744" stroke-linecap="butt" stroke-linejoin="miter" stroke-miterlimit="10" stroke-opacity="1" fill="none" fill-rule="nonzero" transform="matrix(-1 0 0 1.00157 2334.89 591.661)"/><path d="M931.772 62.9574 144.07 62.9574 144.07 541.748" stroke="#000000" stroke-width="37.7744" stroke-linecap="butt" stroke-linejoin="miter" stroke-miterlimit="10" stroke-opacity="1" fill="none" fill-rule="nonzero" transform="matrix(-1 0 0 1.00157 2334.89 591.661)"/><path d="M931.772 914.138 669.203 914.138 669.203 701.345" stroke="#000000" stroke-width="37.7744" stroke-linecap="butt" stroke-linejoin="miter" stroke-miterlimit="10" stroke-opacity="1" fill="none" fill-rule="nonzero" transform="matrix(-1 0 0 1.00157 2334.89 591.661)"/><path d="M406.636 1020.54 144.07 1020.54 144.07 541.748" stroke="#000000" stroke-width="37.7744" stroke-linecap="butt" stroke-linejoin="miter" stroke-miterlimit="10" stroke-opacity="1" fill="none" fill-rule="nonzero" transform="matrix(-1 0 0 1.00157 2334.89 591.661)"/><path d="M931.772 1339.73 406.636 1339.73 406.636 1020.54" stroke="#000000" stroke-width="37.7744" stroke-linecap="butt" stroke-linejoin="miter" stroke-miterlimit="10" stroke-opacity="1" fill="none" fill-rule="nonzero" transform="matrix(-1 0 0 1.00157 2334.89 591.661)"/><path d="M0 541.748 144.07 541.748" stroke="#000000" stroke-width="37.7744" stroke-linecap="butt" stroke-linejoin="miter" stroke-miterlimit="10" stroke-opacity="1" fill="none" fill-rule="nonzero" transform="matrix(-1 0 0 1.00157 2334.89 591.661)"/><text fill="#000000" fill-opacity="1" font-family="Arial,Arial_MSFontService,sans-serif" font-style="normal" font-variant="normal" font-weight="400" font-stretch="normal" font-size="42" text-anchor="start" direction="ltr" writing-mode="lr-tb" unicode-bidi="normal" text-decoration="none" transform="matrix(-2.5183 0 0 2.52225 1377.94 695)">HT2</text><text fill="#000000" fill-opacity="1" font-family="Arial,Arial_MSFontService,sans-serif" font-style="normal" font-variant="normal" font-weight="400" font-stretch="normal" font-size="42" text-anchor="start" direction="ltr" writing-mode="lr-tb" unicode-bidi="normal" text-decoration="none" transform="matrix(-2.5183 0 0 2.52225 1377.94 1121)">HT1</text><text fill="#000000" fill-opacity="1" font-family="Arial,Arial_MSFontService,sans-serif" font-style="normal" font-variant="normal" font-weight="400" font-stretch="normal" font-size="42" text-anchor="start" direction="ltr" writing-mode="lr-tb" unicode-bidi="normal" text-decoration="none" transform="matrix(-2.5183 0 0 2.52225 1377.94 1547)">HT1*</text><text fill="#000000" fill-opacity="1" font-family="Arial,Arial_MSFontService,sans-serif" font-style="normal" font-variant="normal" font-weight="400" font-stretch="normal" font-size="42" text-anchor="start" direction="ltr" writing-mode="lr-tb" unicode-bidi="normal" text-decoration="none" transform="matrix(-2.5183 0 0 2.52225 1377.94 1974)">HT3</text></g></g><text fill="#000000" fill-opacity="1" font-family="Arial,Arial_MSFontService,sans-serif" font-style="normal" font-variant="normal" font-weight="700" font-stretch="normal" font-size="165" text-anchor="start" direction="ltr" writing-mode="lr-tb" unicode-bidi="normal" text-decoration="none" transform="matrix(0.734454 0 0 0.734414 520.6 510)">nDNA</text><text fill="#000000" fill-opacity="1" font-family="Arial,Arial_MSFontService,sans-serif" font-style="normal" font-variant="normal" font-weight="700" font-stretch="normal" font-size="165" text-anchor="start" direction="ltr" writing-mode="lr-tb" unicode-bidi="normal" text-decoration="none" transform="matrix(0.734454 0 0 0.734414 1583.41 510)">m</text><text fill="#000000" fill-opacity="1" font-family="Arial,Arial_MSFontService,sans-serif" font-style="normal" font-variant="normal" font-weight="700" font-stretch="normal" font-size="165" text-anchor="start" direction="ltr" writing-mode="lr-tb" unicode-bidi="normal" text-decoration="none" transform="matrix(0.734454 0 0 0.734414 1691.13 510)">t</text><text fill="#000000" fill-opacity="1" font-family="Arial,Arial_MSFontService,sans-serif" font-style="normal" font-variant="normal" font-weight="700" font-stretch="normal" font-size="165" text-anchor="start" direction="ltr" writing-mode="lr-tb" unicode-bidi="normal" text-decoration="none" transform="matrix(0.734454 0 0 0.734414 1731.52 510)">DNA</text></g></g></g></g></g><g clip-path="url(#clip11)"><g clip-path="url(#clip12)"><g><path d="M615.738 1595.93 946.29 1595.93" stroke="#000000" stroke-width="2.60773" stroke-linecap="round" stroke-linejoin="round" stroke-miterlimit="10" stroke-opacity="1" fill="none" fill-rule="nonzero" transform="matrix(-1.0005 0 0 1 4578.77 574.646)"/><text fill="#000000" fill-opacity="1" font-family="Arial,Arial_MSFontService,sans-serif" font-style="normal" font-variant="normal" font-weight="400" font-stretch="normal" font-size="10" text-anchor="start" direction="ltr" writing-mode="lr-tb" unicode-bidi="normal" text-decoration="none" transform="matrix(-2.60903 0 0 2.60773 3817.99 2210)">0.4</text><path d="M1286.57 75.6241 1011.11 75.6241 1011.11 395.723" stroke="#000000" stroke-width="36.5082" stroke-linecap="butt" stroke-linejoin="miter" stroke-miterlimit="10" stroke-opacity="1" fill="none" fill-rule="nonzero" transform="matrix(-1.0005 0 0 1 4578.77 574.646)"/><path d="M1562.03 75.6241 1286.57 75.6241" stroke="#000000" stroke-width="36.5082" stroke-linecap="butt" stroke-linejoin="miter" stroke-miterlimit="10" stroke-opacity="1" fill="none" fill-rule="nonzero" transform="matrix(-1.0005 0 0 1 4578.77 574.646)"/><path d="M1562.03 715.821 1286.57 715.821" stroke="#000000" stroke-width="36.5082" stroke-linecap="butt" stroke-linejoin="miter" stroke-miterlimit="10" stroke-opacity="1" fill="none" fill-rule="nonzero" transform="matrix(-1.0005 0 0 1 4578.77 574.646)"/><path d="M1286.57 715.821 1011.11 715.821 1011.11 395.723" stroke="#000000" stroke-width="36.5082" stroke-linecap="butt" stroke-linejoin="miter" stroke-miterlimit="10" stroke-opacity="1" fill="none" fill-rule="nonzero" transform="matrix(-1.0005 0 0 1 4578.77 574.646)"/><path d="M1562.03 1356.02 735.646 1356.02 735.646 875.87" stroke="#000000" stroke-width="36.5082" stroke-linecap="butt" stroke-linejoin="miter" stroke-miterlimit="10" stroke-opacity="1" fill="none" fill-rule="nonzero" transform="matrix(-1.0005 0 0 1 4578.77 574.646)"/><path d="M1011.11 395.723 735.646 395.723 735.646 875.87" stroke="#000000" stroke-width="36.5082" stroke-linecap="butt" stroke-linejoin="miter" stroke-miterlimit="10" stroke-opacity="1" fill="none" fill-rule="nonzero" transform="matrix(-1.0005 0 0 1 4578.77 574.646)"/><path d="M0 875.87 735.646 875.87" stroke="#000000" stroke-width="36.5082" stroke-linecap="butt" stroke-linejoin="miter" stroke-miterlimit="10" stroke-opacity="1" fill="none" fill-rule="nonzero" transform="matrix(-1.0005 0 0 1 4578.77 574.646)"/><text fill="#000000" fill-opacity="1" font-family="Arial,Arial_MSFontService,sans-serif" font-style="normal" font-variant="normal" font-weight="400" font-stretch="normal" font-size="48" text-anchor="start" direction="ltr" writing-mode="lr-tb" unicode-bidi="normal" text-decoration="none" transform="matrix(-2.60903 0 0 2.60773 2989.87 697)">wLytA2</text><text fill="#000000" fill-opacity="1" font-family="Arial,Arial_MSFontService,sans-serif" font-style="normal" font-variant="normal" font-weight="400" font-stretch="normal" font-size="48" text-anchor="start" direction="ltr" writing-mode="lr-tb" unicode-bidi="normal" text-decoration="none" transform="matrix(-2.60903 0 0 2.60773 2989.87 1337)">wLytA1</text><text fill="#000000" fill-opacity="1" font-family="Arial,Arial_MSFontService,sans-serif" font-style="normal" font-variant="normal" font-weight="400" font-stretch="normal" font-size="48" text-anchor="start" direction="ltr" writing-mode="lr-tb" unicode-bidi="normal" text-decoration="none" transform="matrix(-2.60903 0 0 2.60773 2989.87 1978)">wLytB</text></g></g></g><g clip-path="url(#clip13)"><g clip-path="url(#clip14)"><g><path d="M615.193 1594.52 945.453 1594.52" stroke="#000000" stroke-width="2.60542" stroke-linecap="round" stroke-linejoin="round" stroke-miterlimit="10" stroke-opacity="1" fill="none" fill-rule="nonzero" transform="matrix(1 0 0 1.00139 983.331 574.654)"/><text fill="#000000" fill-opacity="1" font-family="Arial,Arial_MSFontService,sans-serif" font-style="normal" font-variant="normal" font-weight="400" font-stretch="normal" font-size="10" text-anchor="start" direction="ltr" writing-mode="lr-tb" unicode-bidi="normal" text-decoration="none" transform="matrix(2.60542 0 0 2.60903 1743.06 2211)">0.4</text><path d="M1285.43 75.5572 1010.21 75.5572 1010.21 395.372" stroke="#000000" stroke-width="36.4759" stroke-linecap="butt" stroke-linejoin="miter" stroke-miterlimit="10" stroke-opacity="1" fill="none" fill-rule="nonzero" transform="matrix(1 0 0 1.00139 983.331 574.654)"/><path d="M1560.65 75.5572 1285.43 75.5572" stroke="#000000" stroke-width="36.4759" stroke-linecap="butt" stroke-linejoin="miter" stroke-miterlimit="10" stroke-opacity="1" fill="none" fill-rule="nonzero" transform="matrix(1 0 0 1.00139 983.331 574.654)"/><path d="M1560.65 715.188 1285.43 715.188" stroke="#000000" stroke-width="36.4759" stroke-linecap="butt" stroke-linejoin="miter" stroke-miterlimit="10" stroke-opacity="1" fill="none" fill-rule="nonzero" transform="matrix(1 0 0 1.00139 983.331 574.654)"/><path d="M1285.43 715.188 1010.21 715.188 1010.21 395.372" stroke="#000000" stroke-width="36.4759" stroke-linecap="butt" stroke-linejoin="miter" stroke-miterlimit="10" stroke-opacity="1" fill="none" fill-rule="nonzero" transform="matrix(1 0 0 1.00139 983.331 574.654)"/><path d="M1560.65 1354.82 734.995 1354.82 734.995 875.095" stroke="#000000" stroke-width="36.4759" stroke-linecap="butt" stroke-linejoin="miter" stroke-miterlimit="10" stroke-opacity="1" fill="none" fill-rule="nonzero" transform="matrix(1 0 0 1.00139 983.331 574.654)"/><path d="M1010.21 395.372 734.995 395.372 734.995 875.095" stroke="#000000" stroke-width="36.4759" stroke-linecap="butt" stroke-linejoin="miter" stroke-miterlimit="10" stroke-opacity="1" fill="none" fill-rule="nonzero" transform="matrix(1 0 0 1.00139 983.331 574.654)"/><path d="M0 875.095 734.995 875.095" stroke="#000000" stroke-width="36.4759" stroke-linecap="butt" stroke-linejoin="miter" stroke-miterlimit="10" stroke-opacity="1" fill="none" fill-rule="nonzero" transform="matrix(1 0 0 1.00139 983.331 574.654)"/><text fill="#000000" fill-opacity="1" font-family="Arial,Arial_MSFontService,sans-serif" font-style="normal" font-variant="normal" font-weight="400" font-stretch="normal" font-size="48" text-anchor="start" direction="ltr" writing-mode="lr-tb" unicode-bidi="normal" text-decoration="none" transform="matrix(2.60542 0 0 2.60903 2570.03 697)">wLytA2</text><text fill="#000000" fill-opacity="1" font-family="Arial,Arial_MSFontService,sans-serif" font-style="normal" font-variant="normal" font-weight="400" font-stretch="normal" font-size="48" text-anchor="start" direction="ltr" writing-mode="lr-tb" unicode-bidi="normal" text-decoration="none" transform="matrix(2.60542 0 0 2.60903 2570.03 1338)">wLytA1</text><text fill="#000000" fill-opacity="1" font-family="Arial,Arial_MSFontService,sans-serif" font-style="normal" font-variant="normal" font-weight="400" font-stretch="normal" font-size="48" text-anchor="start" direction="ltr" writing-mode="lr-tb" unicode-bidi="normal" text-decoration="none" transform="matrix(2.60542 0 0 2.60903 2570.03 1978)">wLytB</text></g></g></g><text fill="#000000" fill-opacity="1" font-family="Arial,Arial_MSFontService,sans-serif" font-style="italic" font-variant="normal" font-weight="700" font-stretch="normal" font-size="128" text-anchor="start" direction="ltr" writing-mode="lr-tb" unicode-bidi="normal" text-decoration="none" transform="matrix(1 0 0 1 3277.98 512)">Wolbachi</text><text fill="#000000" fill-opacity="1" font-family="Arial,Arial_MSFontService,sans-serif" font-style="italic" font-variant="normal" font-weight="700" font-stretch="normal" font-size="128" text-anchor="start" direction="ltr" writing-mode="lr-tb" unicode-bidi="normal" text-decoration="none" transform="matrix(1 0 0 1 3848.6 512)">a</text></g></g></svg>