<svg width="3323" height="2406" xmlns="http://www.w3.org/2000/svg" xmlns:xlink="http://www.w3.org/1999/xlink" xml:space="preserve" overflow="hidden"><defs><clipPath id="clip0"><rect x="664" y="151" width="3323" height="2406"/></clipPath><clipPath id="clip1"><rect x="664" y="151" width="3323" height="2406"/></clipPath><clipPath id="clip2"><rect x="666" y="454" width="1702" height="2104"/></clipPath><clipPath id="clip3"><rect x="666" y="454" width="1702" height="2104"/></clipPath><clipPath id="clip4"><rect x="2321" y="438" width="1667" height="2120"/></clipPath><clipPath id="clip5"><rect x="2321" y="438" width="1667" height="2120"/></clipPath></defs><g clip-path="url(#clip0)" transform="translate(-664 -151)"><g clip-path="url(#clip1)"><g clip-path="url(#clip2)"><g clip-path="url(#clip3)"><g><path d="M556.457 2101.82 707.381 2101.82" stroke="#000000" stroke-width="3.43434" stroke-linecap="round" stroke-linejoin="round" stroke-miterlimit="10" stroke-opacity="1" fill="none" fill-rule="nonzero" transform="matrix(1 0 0 1.00001 687.606 474.606)"/><text fill="#000000" fill-opacity="1" font-family="Arial,Arial_MSFontService,sans-serif" font-style="normal" font-variant="normal" font-weight="400" font-stretch="normal" font-size="10" text-anchor="start" direction="ltr" writing-mode="lr-tb" unicode-bidi="normal" text-decoration="none" transform="matrix(3.43434 0 0 3.43437 1292.38 2628)">0.3</text><path d="M1263.84 1246.67 257.678 1246.67 257.678 1149.93" stroke="#000000" stroke-width="51.5152" stroke-linecap="butt" stroke-linejoin="miter" stroke-miterlimit="10" stroke-opacity="1" fill="none" fill-rule="nonzero" transform="matrix(1 0 0 1.00001 687.606 474.606)"/><path d="M1263.84 1827.07 257.678 1827.07 257.678 1149.93" stroke="#000000" stroke-width="51.5152" stroke-linecap="butt" stroke-linejoin="miter" stroke-miterlimit="10" stroke-opacity="1" fill="none" fill-rule="nonzero" transform="matrix(1 0 0 1.00001 687.606 474.606)"/><path d="M1263.84 666.263 760.758 666.263 760.758 376.061" stroke="#000000" stroke-width="51.5152" stroke-linecap="butt" stroke-linejoin="miter" stroke-miterlimit="10" stroke-opacity="1" fill="none" fill-rule="nonzero" transform="matrix(1 0 0 1.00001 687.606 474.606)"/><path d="M1263.84 85.8586 760.758 85.8586 760.758 376.061" stroke="#000000" stroke-width="51.5152" stroke-linecap="butt" stroke-linejoin="miter" stroke-miterlimit="10" stroke-opacity="1" fill="none" fill-rule="nonzero" transform="matrix(1 0 0 1.00001 687.606 474.606)"/><path d="M760.758 376.061 257.678 376.061 257.678 1149.93" stroke="#000000" stroke-width="51.5152" stroke-linecap="butt" stroke-linejoin="miter" stroke-miterlimit="10" stroke-opacity="1" fill="none" fill-rule="nonzero" transform="matrix(1 0 0 1.00001 687.606 474.606)"/><path d="M0 1149.93 257.678 1149.93" stroke="#000000" stroke-width="51.5152" stroke-linecap="butt" stroke-linejoin="miter" stroke-miterlimit="10" stroke-opacity="1" fill="none" fill-rule="nonzero" transform="matrix(1 0 0 1.00001 687.606 474.606)"/><text fill="#000000" fill-opacity="1" font-family="Arial,Arial_MSFontService,sans-serif" font-style="normal" font-variant="normal" font-weight="400" font-stretch="normal" font-size="42" text-anchor="start" direction="ltr" writing-mode="lr-tb" unicode-bidi="normal" text-decoration="none" transform="matrix(3.43434 0 0 3.43437 1985.79 1776)">HT1*</text><text fill="#000000" fill-opacity="1" font-family="Arial,Arial_MSFontService,sans-serif" font-style="normal" font-variant="normal" font-weight="400" font-stretch="normal" font-size="42" text-anchor="start" direction="ltr" writing-mode="lr-tb" unicode-bidi="normal" text-decoration="none" transform="matrix(3.43434 0 0 3.43437 1985.79 2357)">HT3</text><text fill="#000000" fill-opacity="1" font-family="Arial,Arial_MSFontService,sans-serif" font-style="normal" font-variant="normal" font-weight="400" font-stretch="normal" font-size="42" text-anchor="start" direction="ltr" writing-mode="lr-tb" unicode-bidi="normal" text-decoration="none" transform="matrix(3.43434 0 0 3.43437 1985.79 1196)">HT1</text><text fill="#000000" fill-opacity="1" font-family="Arial,Arial_MSFontService,sans-serif" font-style="normal" font-variant="normal" font-weight="400" font-stretch="normal" font-size="42" text-anchor="start" direction="ltr" writing-mode="lr-tb" unicode-bidi="normal" text-decoration="none" transform="matrix(3.43434 0 0 3.43437 1985.79 615)">HT2</text></g></g></g><text fill="#000000" fill-opacity="1" font-family="Arial,Arial_MSFontService,sans-serif" font-style="normal" font-variant="normal" font-weight="700" font-stretch="normal" font-size="165" text-anchor="start" direction="ltr" writing-mode="lr-tb" unicode-bidi="normal" text-decoration="none" transform="matrix(1 0 0 1 1148.17 364)">nDNA</text><text fill="#000000" fill-opacity="1" font-family="Arial,Arial_MSFontService,sans-serif" font-style="normal" font-variant="normal" font-weight="700" font-stretch="normal" font-size="165" text-anchor="start" direction="ltr" writing-mode="lr-tb" unicode-bidi="normal" text-decoration="none" transform="matrix(1 0 0 1 2595.24 364)">m</text><text fill="#000000" fill-opacity="1" font-family="Arial,Arial_MSFontService,sans-serif" font-style="normal" font-variant="normal" font-weight="700" font-stretch="normal" font-size="165" text-anchor="start" direction="ltr" writing-mode="lr-tb" unicode-bidi="normal" text-decoration="none" transform="matrix(1 0 0 1 2741.91 364)">t</text><text fill="#000000" fill-opacity="1" font-family="Arial,Arial_MSFontService,sans-serif" font-style="normal" font-variant="normal" font-weight="700" font-stretch="normal" font-size="165" text-anchor="start" direction="ltr" writing-mode="lr-tb" unicode-bidi="normal" text-decoration="none" transform="matrix(1 0 0 1 2796.91 364)">DNA</text><g clip-path="url(#clip4)"><g clip-path="url(#clip5)"><g><path d="M720.901 2166.62 904.063 2166.62" stroke="#000000" stroke-width="3.54023" stroke-linecap="round" stroke-linejoin="round" stroke-miterlimit="10" stroke-opacity="1" fill="none" fill-rule="nonzero" transform="matrix(-1.00079 0 0 1 3965.74 460.241)"/><text fill="#000000" fill-opacity="1" font-family="Arial,Arial_MSFontService,sans-serif" font-style="normal" font-variant="normal" font-weight="400" font-stretch="normal" font-size="10" text-anchor="start" direction="ltr" writing-mode="lr-tb" unicode-bidi="normal" text-decoration="none" transform="matrix(-3.54302 0 0 3.54023 3180.63 2680)">0.4</text><path d="M1624.96 682.084 1167.06 682.084 1167.06 971.792" stroke="#F4D381" stroke-width="53.1034" stroke-linecap="butt" stroke-linejoin="miter" stroke-miterlimit="10" stroke-opacity="1" fill="none" fill-rule="nonzero" transform="matrix(-1.00079 0 0 1 3965.74 460.241)"/><path d="M1624.96 1840.92 709.156 1840.92 709.156 1406.35" stroke="#F0965B" stroke-width="53.1034" stroke-linecap="butt" stroke-linejoin="miter" stroke-miterlimit="10" stroke-opacity="1" fill="none" fill-rule="nonzero" transform="matrix(-1.00079 0 0 1 3965.74 460.241)"/><path d="M709.156 1406.35 251.252 1406.35 251.252 754.511" stroke="#000000" stroke-width="53.1034" stroke-linecap="butt" stroke-linejoin="miter" stroke-miterlimit="10" stroke-opacity="1" fill="none" fill-rule="nonzero" transform="matrix(-1.00079 0 0 1 3965.74 460.241)"/><path d="M1624.96 1261.5 1167.06 1261.5 1167.06 971.792" stroke="#F4D381" stroke-width="53.1034" stroke-linecap="butt" stroke-linejoin="miter" stroke-miterlimit="10" stroke-opacity="1" fill="none" fill-rule="nonzero" transform="matrix(-1.00079 0 0 1 3965.74 460.241)"/><path d="M0 754.511 251.252 754.511" stroke="#000000" stroke-width="53.1034" stroke-linecap="butt" stroke-linejoin="miter" stroke-miterlimit="10" stroke-opacity="1" fill="none" fill-rule="nonzero" transform="matrix(-1.00079 0 0 1 3965.74 460.241)"/><path d="M1167.06 971.792 709.156 971.792 709.156 1406.35" stroke="#F4D381" stroke-width="53.1034" stroke-linecap="butt" stroke-linejoin="miter" stroke-miterlimit="10" stroke-opacity="1" fill="none" fill-rule="nonzero" transform="matrix(-1.00079 0 0 1 3965.74 460.241)"/><path d="M1624.96 102.667 251.252 102.667 251.252 754.511" stroke="#CB605C" stroke-width="53.1034" stroke-linecap="butt" stroke-linejoin="miter" stroke-miterlimit="10" stroke-opacity="1" fill="none" fill-rule="nonzero" transform="matrix(-1.00079 0 0 1 3965.74 460.241)"/><text fill="#000000" fill-opacity="1" font-family="Arial,Arial_MSFontService,sans-serif" font-style="normal" font-variant="normal" font-weight="400" font-stretch="normal" font-size="48" text-anchor="start" direction="ltr" writing-mode="lr-tb" unicode-bidi="normal" text-decoration="none" transform="matrix(-3.54302 0 0 3.54023 2304.07 1206)">HT1</text><text fill="#000000" fill-opacity="1" font-family="Arial,Arial_MSFontService,sans-serif" font-style="normal" font-variant="normal" font-weight="400" font-stretch="normal" font-size="48" text-anchor="start" direction="ltr" writing-mode="lr-tb" unicode-bidi="normal" text-decoration="none" transform="matrix(-3.54302 0 0 3.54023 2304.07 2365)">HT3</text><text fill="#000000" fill-opacity="1" font-family="Arial,Arial_MSFontService,sans-serif" font-style="normal" font-variant="normal" font-weight="400" font-stretch="normal" font-size="48" text-anchor="start" direction="ltr" writing-mode="lr-tb" unicode-bidi="normal" text-decoration="none" transform="matrix(-3.54302 0 0 3.54023 2304.07 1785)">HT1*</text><text fill="#000000" fill-opacity="1" font-family="Arial,Arial_MSFontService,sans-serif" font-style="normal" font-variant="normal" font-weight="400" font-stretch="normal" font-size="48" text-anchor="start" direction="ltr" writing-mode="lr-tb" unicode-bidi="normal" text-decoration="none" transform="matrix(-3.54302 0 0 3.54023 2304.07 627)">HT2</text></g></g></g></g></g></svg>