<svg width="2975" height="2406" xmlns="http://www.w3.org/2000/svg" xmlns:xlink="http://www.w3.org/1999/xlink" xml:space="preserve" overflow="hidden"><defs><clipPath id="clip0"><rect x="664" y="151" width="2975" height="2406"/></clipPath><clipPath id="clip1"><rect x="664" y="151" width="2975" height="2406"/></clipPath><clipPath id="clip2"><rect x="666" y="454" width="1702" height="2104"/></clipPath><clipPath id="clip3"><rect x="666" y="454" width="1702" height="2104"/></clipPath><clipPath id="clip4"><rect x="2314" y="454" width="1325" height="2104"/></clipPath><clipPath id="clip5"><rect x="2314" y="454" width="1325" height="2104"/></clipPath></defs><g clip-path="url(#clip0)" transform="translate(-664 -151)"><g clip-path="url(#clip1)"><g clip-path="url(#clip2)"><g clip-path="url(#clip3)"><g><path d="M556.457 2101.82 707.381 2101.82" stroke="#000000" stroke-width="3.43434" stroke-linecap="round" stroke-linejoin="round" stroke-miterlimit="10" stroke-opacity="1" fill="none" fill-rule="nonzero" transform="matrix(1 0 0 1.00001 687.606 474.606)"/><text fill="#000000" fill-opacity="1" font-family="Arial,Arial_MSFontService,sans-serif" font-style="normal" font-variant="normal" font-weight="400" font-stretch="normal" font-size="10" text-anchor="start" direction="ltr" writing-mode="lr-tb" unicode-bidi="normal" text-decoration="none" transform="matrix(3.43434 0 0 3.43437 1292.38 2628)">0.3</text><path d="M1263.84 1246.67 257.678 1246.67 257.678 1149.93" stroke="#000000" stroke-width="51.5152" stroke-linecap="butt" stroke-linejoin="miter" stroke-miterlimit="10" stroke-opacity="1" fill="none" fill-rule="nonzero" transform="matrix(1 0 0 1.00001 687.606 474.606)"/><path d="M1263.84 1827.07 257.678 1827.07 257.678 1149.93" stroke="#000000" stroke-width="51.5152" stroke-linecap="butt" stroke-linejoin="miter" stroke-miterlimit="10" stroke-opacity="1" fill="none" fill-rule="nonzero" transform="matrix(1 0 0 1.00001 687.606 474.606)"/><path d="M1263.84 666.263 760.758 666.263 760.758 376.061" stroke="#000000" stroke-width="51.5152" stroke-linecap="butt" stroke-linejoin="miter" stroke-miterlimit="10" stroke-opacity="1" fill="none" fill-rule="nonzero" transform="matrix(1 0 0 1.00001 687.606 474.606)"/><path d="M1263.84 85.8586 760.758 85.8586 760.758 376.061" stroke="#000000" stroke-width="51.5152" stroke-linecap="butt" stroke-linejoin="miter" stroke-miterlimit="10" stroke-opacity="1" fill="none" fill-rule="nonzero" transform="matrix(1 0 0 1.00001 687.606 474.606)"/><path d="M760.758 376.061 257.678 376.061 257.678 1149.93" stroke="#000000" stroke-width="51.5152" stroke-linecap="butt" stroke-linejoin="miter" stroke-miterlimit="10" stroke-opacity="1" fill="none" fill-rule="nonzero" transform="matrix(1 0 0 1.00001 687.606 474.606)"/><path d="M0 1149.93 257.678 1149.93" stroke="#000000" stroke-width="51.5152" stroke-linecap="butt" stroke-linejoin="miter" stroke-miterlimit="10" stroke-opacity="1" fill="none" fill-rule="nonzero" transform="matrix(1 0 0 1.00001 687.606 474.606)"/><text fill="#000000" fill-opacity="1" font-family="Arial,Arial_MSFontService,sans-serif" font-style="normal" font-variant="normal" font-weight="400" font-stretch="normal" font-size="42" text-anchor="start" direction="ltr" writing-mode="lr-tb" unicode-bidi="normal" text-decoration="none" transform="matrix(3.43434 0 0 3.43437 1985.79 1776)">HT1*</text><text fill="#000000" fill-opacity="1" font-family="Arial,Arial_MSFontService,sans-serif" font-style="normal" font-variant="normal" font-weight="400" font-stretch="normal" font-size="42" text-anchor="start" direction="ltr" writing-mode="lr-tb" unicode-bidi="normal" text-decoration="none" transform="matrix(3.43434 0 0 3.43437 1985.79 2357)">HT3</text><text fill="#000000" fill-opacity="1" font-family="Arial,Arial_MSFontService,sans-serif" font-style="normal" font-variant="normal" font-weight="400" font-stretch="normal" font-size="42" text-anchor="start" direction="ltr" writing-mode="lr-tb" unicode-bidi="normal" text-decoration="none" transform="matrix(3.43434 0 0 3.43437 1985.79 1196)">HT1</text><text fill="#000000" fill-opacity="1" font-family="Arial,Arial_MSFontService,sans-serif" font-style="normal" font-variant="normal" font-weight="400" font-stretch="normal" font-size="42" text-anchor="start" direction="ltr" writing-mode="lr-tb" unicode-bidi="normal" text-decoration="none" transform="matrix(3.43434 0 0 3.43437 1985.79 615)">HT2</text></g></g></g><g clip-path="url(#clip4)"><g clip-path="url(#clip5)"><g><path d="M562.828 2098.43 705.828 2098.43" stroke="#000000" stroke-width="3.4288" stroke-linecap="round" stroke-linejoin="round" stroke-miterlimit="10" stroke-opacity="1" fill="none" fill-rule="nonzero" transform="matrix(-1 0 0 1.00162 3618.43 474.606)"/><text fill="#000000" fill-opacity="1" font-family="Arial,Arial_MSFontService,sans-serif" font-style="normal" font-variant="normal" font-weight="400" font-stretch="normal" font-size="10" text-anchor="start" direction="ltr" writing-mode="lr-tb" unicode-bidi="normal" text-decoration="none" transform="matrix(-3.4288 0 0 3.43437 3011.2 2628)">0.4</text><path d="M911.158 954.921 553.658 954.921 553.658 1389.52" stroke="#000000" stroke-width="51.432" stroke-linecap="butt" stroke-linejoin="miter" stroke-miterlimit="10" stroke-opacity="1" fill="none" fill-rule="nonzero" transform="matrix(-1 0 0 1.00162 3618.43 474.606)"/><path d="M1268.66 665.187 911.158 665.187 911.158 954.921" stroke="#000000" stroke-width="51.432" stroke-linecap="butt" stroke-linejoin="miter" stroke-miterlimit="10" stroke-opacity="1" fill="none" fill-rule="nonzero" transform="matrix(-1 0 0 1.00162 3618.43 474.606)"/><path d="M1268.66 85.72 196.16 85.72 196.16 737.621" stroke="#000000" stroke-width="51.432" stroke-linecap="butt" stroke-linejoin="miter" stroke-miterlimit="10" stroke-opacity="1" fill="none" fill-rule="nonzero" transform="matrix(-1 0 0 1.00162 3618.43 474.606)"/><path d="M1268.66 1244.65 911.158 1244.65 911.158 954.921" stroke="#000000" stroke-width="51.432" stroke-linecap="butt" stroke-linejoin="miter" stroke-miterlimit="10" stroke-opacity="1" fill="none" fill-rule="nonzero" transform="matrix(-1 0 0 1.00162 3618.43 474.606)"/><path d="M553.658 1389.52 196.16 1389.52 196.16 737.621" stroke="#000000" stroke-width="51.432" stroke-linecap="butt" stroke-linejoin="miter" stroke-miterlimit="10" stroke-opacity="1" fill="none" fill-rule="nonzero" transform="matrix(-1 0 0 1.00162 3618.43 474.606)"/><path d="M1268.66 1824.12 553.658 1824.12 553.658 1389.52" stroke="#000000" stroke-width="51.432" stroke-linecap="butt" stroke-linejoin="miter" stroke-miterlimit="10" stroke-opacity="1" fill="none" fill-rule="nonzero" transform="matrix(-1 0 0 1.00162 3618.43 474.606)"/><path d="M0 737.621 196.16 737.621" stroke="#000000" stroke-width="51.432" stroke-linecap="butt" stroke-linejoin="miter" stroke-miterlimit="10" stroke-opacity="1" fill="none" fill-rule="nonzero" transform="matrix(-1 0 0 1.00162 3618.43 474.606)"/><text fill="#000000" fill-opacity="1" font-family="Arial,Arial_MSFontService,sans-serif" font-style="normal" font-variant="normal" font-weight="400" font-stretch="normal" font-size="42" text-anchor="start" direction="ltr" writing-mode="lr-tb" unicode-bidi="normal" text-decoration="none" transform="matrix(-3.4288 0 0 3.43437 2315.48 615)">HT2</text><text fill="#000000" fill-opacity="1" font-family="Arial,Arial_MSFontService,sans-serif" font-style="normal" font-variant="normal" font-weight="400" font-stretch="normal" font-size="42" text-anchor="start" direction="ltr" writing-mode="lr-tb" unicode-bidi="normal" text-decoration="none" transform="matrix(-3.4288 0 0 3.43437 2315.48 1196)">HT1</text><text fill="#000000" fill-opacity="1" font-family="Arial,Arial_MSFontService,sans-serif" font-style="normal" font-variant="normal" font-weight="400" font-stretch="normal" font-size="42" text-anchor="start" direction="ltr" writing-mode="lr-tb" unicode-bidi="normal" text-decoration="none" transform="matrix(-3.4288 0 0 3.43437 2315.48 1776)">HT1*</text><text fill="#000000" fill-opacity="1" font-family="Arial,Arial_MSFontService,sans-serif" font-style="normal" font-variant="normal" font-weight="400" font-stretch="normal" font-size="42" text-anchor="start" direction="ltr" writing-mode="lr-tb" unicode-bidi="normal" text-decoration="none" transform="matrix(-3.4288 0 0 3.43437 2315.48 2357)">HT3</text></g></g></g><text fill="#000000" fill-opacity="1" font-family="Arial,Arial_MSFontService,sans-serif" font-style="normal" font-variant="normal" font-weight="700" font-stretch="normal" font-size="165" text-anchor="start" direction="ltr" writing-mode="lr-tb" unicode-bidi="normal" text-decoration="none" transform="matrix(1 0 0 1 1148.17 364)">nDNA</text><text fill="#000000" fill-opacity="1" font-family="Arial,Arial_MSFontService,sans-serif" font-style="normal" font-variant="normal" font-weight="700" font-stretch="normal" font-size="165" text-anchor="start" direction="ltr" writing-mode="lr-tb" unicode-bidi="normal" text-decoration="none" transform="matrix(1 0 0 1 2595.24 364)">m</text><text fill="#000000" fill-opacity="1" font-family="Arial,Arial_MSFontService,sans-serif" font-style="normal" font-variant="normal" font-weight="700" font-stretch="normal" font-size="165" text-anchor="start" direction="ltr" writing-mode="lr-tb" unicode-bidi="normal" text-decoration="none" transform="matrix(1 0 0 1 2741.91 364)">t</text><text fill="#000000" fill-opacity="1" font-family="Arial,Arial_MSFontService,sans-serif" font-style="normal" font-variant="normal" font-weight="700" font-stretch="normal" font-size="165" text-anchor="start" direction="ltr" writing-mode="lr-tb" unicode-bidi="normal" text-decoration="none" transform="matrix(1 0 0 1 2796.91 364)">DNA</text></g></g></svg>