<svg width="3341" height="2420" xmlns="http://www.w3.org/2000/svg" xmlns:xlink="http://www.w3.org/1999/xlink" xml:space="preserve" overflow="hidden"><defs><clipPath id="clip0"><rect x="664" y="151" width="3341" height="2420"/></clipPath><clipPath id="clip1"><rect x="664" y="151" width="3341" height="2420"/></clipPath><clipPath id="clip2"><rect x="666" y="454" width="1702" height="2104"/></clipPath><clipPath id="clip3"><rect x="666" y="454" width="1702" height="2104"/></clipPath><clipPath id="clip4"><rect x="2389" y="451" width="1615" height="2118"/></clipPath><clipPath id="clip5"><rect x="2389" y="451" width="1615" height="2118"/></clipPath></defs><g clip-path="url(#clip0)" transform="translate(-664 -151)"><g clip-path="url(#clip1)"><g clip-path="url(#clip2)"><g clip-path="url(#clip3)"><g><path d="M556.457 2101.82 707.381 2101.82" stroke="#000000" stroke-width="3.43434" stroke-linecap="round" stroke-linejoin="round" stroke-miterlimit="10" stroke-opacity="1" fill="none" fill-rule="nonzero" transform="matrix(1 0 0 1.00001 687.606 474.606)"/><text fill="#000000" fill-opacity="1" font-family="Arial,Arial_MSFontService,sans-serif" font-style="normal" font-variant="normal" font-weight="400" font-stretch="normal" font-size="10" text-anchor="start" direction="ltr" writing-mode="lr-tb" unicode-bidi="normal" text-decoration="none" transform="matrix(3.43434 0 0 3.43437 1292.38 2628)">0.3</text><path d="M1263.84 1246.67 257.678 1246.67 257.678 1149.93" stroke="#000000" stroke-width="51.5152" stroke-linecap="butt" stroke-linejoin="miter" stroke-miterlimit="10" stroke-opacity="1" fill="none" fill-rule="nonzero" transform="matrix(1 0 0 1.00001 687.606 474.606)"/><path d="M1263.84 1827.07 257.678 1827.07 257.678 1149.93" stroke="#000000" stroke-width="51.5152" stroke-linecap="butt" stroke-linejoin="miter" stroke-miterlimit="10" stroke-opacity="1" fill="none" fill-rule="nonzero" transform="matrix(1 0 0 1.00001 687.606 474.606)"/><path d="M1263.84 666.263 760.758 666.263 760.758 376.061" stroke="#000000" stroke-width="51.5152" stroke-linecap="butt" stroke-linejoin="miter" stroke-miterlimit="10" stroke-opacity="1" fill="none" fill-rule="nonzero" transform="matrix(1 0 0 1.00001 687.606 474.606)"/><path d="M1263.84 85.8586 760.758 85.8586 760.758 376.061" stroke="#000000" stroke-width="51.5152" stroke-linecap="butt" stroke-linejoin="miter" stroke-miterlimit="10" stroke-opacity="1" fill="none" fill-rule="nonzero" transform="matrix(1 0 0 1.00001 687.606 474.606)"/><path d="M760.758 376.061 257.678 376.061 257.678 1149.93" stroke="#000000" stroke-width="51.5152" stroke-linecap="butt" stroke-linejoin="miter" stroke-miterlimit="10" stroke-opacity="1" fill="none" fill-rule="nonzero" transform="matrix(1 0 0 1.00001 687.606 474.606)"/><path d="M0 1149.93 257.678 1149.93" stroke="#000000" stroke-width="51.5152" stroke-linecap="butt" stroke-linejoin="miter" stroke-miterlimit="10" stroke-opacity="1" fill="none" fill-rule="nonzero" transform="matrix(1 0 0 1.00001 687.606 474.606)"/><text fill="#000000" fill-opacity="1" font-family="Arial,Arial_MSFontService,sans-serif" font-style="normal" font-variant="normal" font-weight="400" font-stretch="normal" font-size="42" text-anchor="start" direction="ltr" writing-mode="lr-tb" unicode-bidi="normal" text-decoration="none" transform="matrix(3.43434 0 0 3.43437 1985.79 1776)">HT1*</text><text fill="#000000" fill-opacity="1" font-family="Arial,Arial_MSFontService,sans-serif" font-style="normal" font-variant="normal" font-weight="400" font-stretch="normal" font-size="42" text-anchor="start" direction="ltr" writing-mode="lr-tb" unicode-bidi="normal" text-decoration="none" transform="matrix(3.43434 0 0 3.43437 1985.79 2357)">HT3</text><text fill="#000000" fill-opacity="1" font-family="Arial,Arial_MSFontService,sans-serif" font-style="normal" font-variant="normal" font-weight="400" font-stretch="normal" font-size="42" text-anchor="start" direction="ltr" writing-mode="lr-tb" unicode-bidi="normal" text-decoration="none" transform="matrix(3.43434 0 0 3.43437 1985.79 1196)">HT1</text><text fill="#000000" fill-opacity="1" font-family="Arial,Arial_MSFontService,sans-serif" font-style="normal" font-variant="normal" font-weight="400" font-stretch="normal" font-size="42" text-anchor="start" direction="ltr" writing-mode="lr-tb" unicode-bidi="normal" text-decoration="none" transform="matrix(3.43434 0 0 3.43437 1985.79 615)">HT2</text></g></g></g><text fill="#000000" fill-opacity="1" font-family="Arial,Arial_MSFontService,sans-serif" font-style="normal" font-variant="normal" font-weight="400" font-stretch="normal" font-size="165" text-anchor="start" direction="ltr" writing-mode="lr-tb" unicode-bidi="normal" text-decoration="none" transform="matrix(1 0 0 1 1148.17 364)">nDNA</text><text fill="#000000" fill-opacity="1" font-family="Arial,Arial_MSFontService,sans-serif" font-style="normal" font-variant="normal" font-weight="400" font-stretch="normal" font-size="165" text-anchor="start" direction="ltr" writing-mode="lr-tb" unicode-bidi="normal" text-decoration="none" transform="matrix(1 0 0 1 2662.36 376)">m</text><text fill="#000000" fill-opacity="1" font-family="Arial,Arial_MSFontService,sans-serif" font-style="normal" font-variant="normal" font-weight="400" font-stretch="normal" font-size="165" text-anchor="start" direction="ltr" writing-mode="lr-tb" unicode-bidi="normal" text-decoration="none" transform="matrix(1 0 0 1 2799.86 376)">t</text><text fill="#000000" fill-opacity="1" font-family="Arial,Arial_MSFontService,sans-serif" font-style="normal" font-variant="normal" font-weight="400" font-stretch="normal" font-size="165" text-anchor="start" direction="ltr" writing-mode="lr-tb" unicode-bidi="normal" text-decoration="none" transform="matrix(1 0 0 1 2845.7 376)">DNA</text><g clip-path="url(#clip4)"><g clip-path="url(#clip5)"><g><path d="M699.383 2101.95 877.078 2101.95" stroke="#000000" stroke-width="3.43456" stroke-linecap="round" stroke-linejoin="round" stroke-miterlimit="10" stroke-opacity="1" fill="none" fill-rule="nonzero" transform="matrix(-1 0 0 1.03077 3983.39 472.241)"/><text fill="#000000" fill-opacity="1" font-family="Arial,Arial_MSFontService,sans-serif" font-style="normal" font-variant="normal" font-weight="400" font-stretch="normal" font-size="10" text-anchor="start" direction="ltr" writing-mode="lr-tb" unicode-bidi="normal" text-decoration="none" transform="matrix(-3.43456 0 0 3.54023 3222.31 2692)">0.4</text><path d="M1576.46 661.724 1132.22 661.724 1132.22 942.785" stroke="#F4D381" stroke-width="51.5183" stroke-linecap="butt" stroke-linejoin="miter" stroke-miterlimit="10" stroke-opacity="1" fill="none" fill-rule="nonzero" transform="matrix(-1 0 0 1.03077 3983.39 472.241)"/><path d="M1576.46 1785.97 687.989 1785.97 687.989 1364.38" stroke="#F0965B" stroke-width="51.5183" stroke-linecap="butt" stroke-linejoin="miter" stroke-miterlimit="10" stroke-opacity="1" fill="none" fill-rule="nonzero" transform="matrix(-1 0 0 1.03077 3983.39 472.241)"/><path d="M687.989 1364.38 243.752 1364.38 243.752 731.99" stroke="#000000" stroke-width="51.5183" stroke-linecap="butt" stroke-linejoin="miter" stroke-miterlimit="10" stroke-opacity="1" fill="none" fill-rule="nonzero" transform="matrix(-1 0 0 1.03077 3983.39 472.241)"/><path d="M1576.46 1223.85 1132.22 1223.85 1132.22 942.785" stroke="#F4D381" stroke-width="51.5183" stroke-linecap="butt" stroke-linejoin="miter" stroke-miterlimit="10" stroke-opacity="1" fill="none" fill-rule="nonzero" transform="matrix(-1 0 0 1.03077 3983.39 472.241)"/><path d="M0 731.99 243.752 731.99" stroke="#000000" stroke-width="51.5183" stroke-linecap="butt" stroke-linejoin="miter" stroke-miterlimit="10" stroke-opacity="1" fill="none" fill-rule="nonzero" transform="matrix(-1 0 0 1.03077 3983.39 472.241)"/><path d="M1132.22 942.785 687.989 942.785 687.989 1364.38" stroke="#F4D381" stroke-width="51.5183" stroke-linecap="butt" stroke-linejoin="miter" stroke-miterlimit="10" stroke-opacity="1" fill="none" fill-rule="nonzero" transform="matrix(-1 0 0 1.03077 3983.39 472.241)"/><path d="M1576.46 99.6021 243.752 99.6021 243.752 731.99" stroke="#CB605C" stroke-width="51.5183" stroke-linecap="butt" stroke-linejoin="miter" stroke-miterlimit="10" stroke-opacity="1" fill="none" fill-rule="nonzero" transform="matrix(-1 0 0 1.03077 3983.39 472.241)"/><text fill="#000000" fill-opacity="1" font-family="Arial,Arial_MSFontService,sans-serif" font-style="normal" font-variant="normal" font-weight="400" font-stretch="normal" font-size="48" text-anchor="start" direction="ltr" writing-mode="lr-tb" unicode-bidi="normal" text-decoration="none" transform="matrix(-3.43456 0 0 3.54023 2372.59 1218)">HT1</text><text fill="#000000" fill-opacity="1" font-family="Arial,Arial_MSFontService,sans-serif" font-style="normal" font-variant="normal" font-weight="400" font-stretch="normal" font-size="48" text-anchor="start" direction="ltr" writing-mode="lr-tb" unicode-bidi="normal" text-decoration="none" transform="matrix(-3.43456 0 0 3.54023 2372.59 2377)">HT3</text><text fill="#000000" fill-opacity="1" font-family="Arial,Arial_MSFontService,sans-serif" font-style="normal" font-variant="normal" font-weight="400" font-stretch="normal" font-size="48" text-anchor="start" direction="ltr" writing-mode="lr-tb" unicode-bidi="normal" text-decoration="none" transform="matrix(-3.43456 0 0 3.54023 2372.59 1797)">HT1*</text><text fill="#000000" fill-opacity="1" font-family="Arial,Arial_MSFontService,sans-serif" font-style="normal" font-variant="normal" font-weight="400" font-stretch="normal" font-size="48" text-anchor="start" direction="ltr" writing-mode="lr-tb" unicode-bidi="normal" text-decoration="none" transform="matrix(-3.43456 0 0 3.54023 2372.59 639)">HT2</text></g></g></g><path d="M10.3125-2.26934e-06 10.3125 20.625-10.3125 20.625-10.3125 2.26934e-06ZM10.3125 41.25 10.3125 61.875-10.3125 61.875-10.3125 41.25ZM10.3125 82.5 10.3125 103.125-10.3125 103.125-10.3125 82.5ZM10.3125 123.75 10.3125 144.375-10.3125 144.375-10.3125 123.75ZM10.3125 165 10.3125 185.625-10.3125 185.625-10.3125 165ZM10.3125 206.25 10.3125 226.875-10.3124 226.875-10.3125 206.25ZM10.3126 247.5 10.3126 268.125-10.3124 268.125-10.3124 247.5ZM10.3126 288.75 10.3126 309.375-10.3124 309.375-10.3124 288.75ZM10.3126 330 10.3126 350.625-10.3124 350.625-10.3124 330ZM10.3126 371.25 10.3126 391.875-10.3124 391.875-10.3124 371.25ZM10.3126 412.5 10.3126 433.125-10.3124 433.125-10.3124 412.5ZM10.3126 453.75 10.3126 474.375-10.3124 474.375-10.3124 453.75ZM10.3126 495 10.3126 515.625-10.3124 515.625-10.3124 495ZM10.3126 536.25 10.3126 556.875-10.3124 556.875-10.3124 536.25ZM10.3126 577.5 10.3126 598.125-10.3124 598.125-10.3124 577.5ZM10.3126 618.75 10.3126 639.375-10.3124 639.375-10.3124 618.75ZM10.3126 660 10.3126 680.625-10.3124 680.625-10.3124 660ZM10.3127 701.25 10.3127 721.875-10.3123 721.875-10.3123 701.25ZM10.3127 742.5 10.3127 763.125-10.3123 763.125-10.3123 742.5ZM10.3127 783.75 10.3127 804.375-10.3123 804.375-10.3123 783.75ZM10.3127 825 10.3127 845.625-10.3123 845.625-10.3123 825ZM10.3127 866.25 10.3127 886.875-10.3123 886.875-10.3123 866.25ZM10.3127 907.5 10.3127 928.125-10.3123 928.125-10.3123 907.5ZM10.3127 948.75 10.3127 969.375-10.3123 969.375-10.3123 948.75ZM10.3127 990 10.3127 1010.62-10.3123 1010.62-10.3123 990ZM10.3127 1031.25 10.3127 1051.88-10.3123 1051.88-10.3123 1031.25ZM10.3127 1072.5 10.3127 1093.12-10.3123 1093.12-10.3123 1072.5ZM10.3127 1113.75 10.3127 1134.38-10.3123 1134.38-10.3123 1113.75ZM10.3128 1155 10.3128 1175.62-10.3122 1175.62-10.3122 1155ZM10.3128 1196.25 10.3128 1216.88-10.3122 1216.88-10.3122 1196.25ZM10.3128 1237.5 10.3128 1258.12-10.3122 1258.12-10.3122 1237.5ZM10.3128 1278.75 10.3128 1299.38-10.3122 1299.38-10.3122 1278.75ZM10.3128 1320 10.3128 1340.62-10.3122 1340.62-10.3122 1320ZM10.3128 1361.25 10.3128 1381.88-10.3122 1381.88-10.3122 1361.25ZM10.3128 1402.5 10.3128 1423.12-10.3122 1423.12-10.3122 1402.5ZM10.3128 1443.75 10.3128 1464.38-10.3122 1464.38-10.3122 1443.75ZM10.3128 1485 10.3128 1505.62-10.3122 1505.62-10.3122 1485ZM10.3128 1526.25 10.3128 1546.88-10.3122 1546.88-10.3122 1526.25ZM10.3128 1567.5 10.3128 1588.12-10.3122 1588.12-10.3122 1567.5ZM10.3129 1608.75 10.3129 1619.58-10.3121 1619.58-10.3121 1608.75ZM45.0018 1562.9 0.000359224 1640.04-45.0011 1562.9-45.0011 1562.9C-47.8709 1557.98-46.2092 1551.66-41.2896 1548.79-36.37 1545.92-30.0555 1547.58-27.1857 1552.5L-27.1857 1552.5 8.90808 1614.38-8.90736 1614.38 27.1864 1552.5C30.0561 1547.58 36.3707 1545.92 41.2903 1548.79 46.2099 1551.66 47.8716 1557.98 45.0018 1562.9Z" fill="#F0965B" fill-rule="nonzero" fill-opacity="1" transform="matrix(1 0 0 -1 3045.5 2250.49)"/><text fill="#DDB34D" fill-opacity="1" font-family="Arial,Arial_MSFontService,sans-serif" font-style="italic" font-variant="normal" font-weight="400" font-stretch="normal" font-size="110" text-anchor="start" direction="ltr" writing-mode="lr-tb" unicode-bidi="normal" text-decoration="none" transform="matrix(1 0 0 1 2446.81 1475)">w</text><text fill="#DDB34D" fill-opacity="1" font-family="Arial,Arial_MSFontService,sans-serif" font-style="normal" font-variant="normal" font-weight="400" font-stretch="normal" font-size="110" text-anchor="start" direction="ltr" writing-mode="lr-tb" unicode-bidi="normal" text-decoration="none" transform="matrix(1 0 0 1 2526.45 1475)">LytA1</text><text fill="#CC605C" fill-opacity="1" font-family="Arial,Arial_MSFontService,sans-serif" font-style="italic" font-variant="normal" font-weight="400" font-stretch="normal" font-size="110" text-anchor="start" direction="ltr" writing-mode="lr-tb" unicode-bidi="normal" text-decoration="none" transform="matrix(1 0 0 1 2446.81 733)">w</text><text fill="#CC605C" fill-opacity="1" font-family="Arial,Arial_MSFontService,sans-serif" font-style="normal" font-variant="normal" font-weight="400" font-stretch="normal" font-size="110" text-anchor="start" direction="ltr" writing-mode="lr-tb" unicode-bidi="normal" text-decoration="none" transform="matrix(1 0 0 1 2526.45 733)">LytA2 +</text><text fill="#CC605C" fill-opacity="1" font-family="Arial,Arial_MSFontService,sans-serif" font-style="italic" font-variant="normal" font-weight="400" font-stretch="normal" font-size="110" text-anchor="start" direction="ltr" writing-mode="lr-tb" unicode-bidi="normal" text-decoration="none" transform="matrix(1 0 0 1 2446.81 865)">w</text><text fill="#CC605C" fill-opacity="1" font-family="Arial,Arial_MSFontService,sans-serif" font-style="normal" font-variant="normal" font-weight="400" font-stretch="normal" font-size="110" text-anchor="start" direction="ltr" writing-mode="lr-tb" unicode-bidi="normal" text-decoration="none" transform="matrix(1 0 0 1 2526.45 865)">LytB</text><path d="M0 0 0.000360892 682.716" stroke="#C8CC5C" stroke-width="53.8542" stroke-linecap="butt" stroke-linejoin="round" stroke-miterlimit="10" stroke-opacity="1" fill="none" fill-rule="evenodd" transform="matrix(1 0 0 -1 3739 1229.72)"/><path d="M3045 575 3739.6 575" stroke="#C8CC5C" stroke-width="56.1458" stroke-linecap="butt" stroke-linejoin="round" stroke-miterlimit="10" stroke-opacity="1" fill="none" fill-rule="evenodd"/><text fill="#C9CC5B" fill-opacity="1" font-family="Arial,Arial_MSFontService,sans-serif" font-style="italic" font-variant="normal" font-weight="400" font-stretch="normal" font-size="110" text-anchor="start" direction="ltr" writing-mode="lr-tb" unicode-bidi="normal" text-decoration="none" transform="matrix(1 0 0 1 3229.36 733)">w</text><text fill="#C9CC5B" fill-opacity="1" font-family="Arial,Arial_MSFontService,sans-serif" font-style="normal" font-variant="normal" font-weight="400" font-stretch="normal" font-size="110" text-anchor="start" direction="ltr" writing-mode="lr-tb" unicode-bidi="normal" text-decoration="none" transform="matrix(1 0 0 1 3308.99 733)">LytA2</text><text fill="#F0965B" fill-opacity="1" font-family="Arial,Arial_MSFontService,sans-serif" font-style="italic" font-variant="normal" font-weight="400" font-stretch="normal" font-size="110" text-anchor="start" direction="ltr" writing-mode="lr-tb" unicode-bidi="normal" text-decoration="none" transform="matrix(1 0 0 1 2446.81 2224)">w</text><text fill="#F0965B" fill-opacity="1" font-family="Arial,Arial_MSFontService,sans-serif" font-style="normal" font-variant="normal" font-weight="400" font-stretch="normal" font-size="110" text-anchor="start" direction="ltr" writing-mode="lr-tb" unicode-bidi="normal" text-decoration="none" transform="matrix(1 0 0 1 2526.45 2224)">LytB</text><rect x="2845" y="1837" width="399" height="211" fill="#FFFFFF" fill-opacity="1"/><text fill="#F0965B" fill-opacity="1" font-family="Arial,Arial_MSFontService,sans-serif" font-style="normal" font-variant="normal" font-weight="400" font-stretch="normal" font-size="73" text-anchor="start" direction="ltr" writing-mode="lr-tb" unicode-bidi="normal" text-decoration="none" transform="matrix(1 0 0 1 2879.85 1925)">Horizontal</text><text fill="#F0965B" fill-opacity="1" font-family="Arial,Arial_MSFontService,sans-serif" font-style="normal" font-variant="normal" font-weight="400" font-stretch="normal" font-size="73" text-anchor="start" direction="ltr" writing-mode="lr-tb" unicode-bidi="normal" text-decoration="none" transform="matrix(1 0 0 1 2919.95 2013)">transfer</text><path d="M9.87466-2.973 15.8207 16.7763-3.92866 22.7223-9.87466 2.973ZM21.7667 36.5256 27.7127 56.275 7.96334 62.221 2.01734 42.4716ZM33.6587 76.0243 39.6047 95.7736 19.8553 101.72 13.9093 81.9703ZM45.5507 115.523 51.4966 135.272 31.7473 141.218 25.8013 121.469ZM57.4426 155.022 63.3886 174.771 43.6393 180.717 37.6933 160.968ZM69.3346 194.52 75.2806 214.27 55.5313 220.216 49.5853 200.466ZM81.2266 234.019 87.1726 253.768 67.4233 259.714 61.4773 239.965ZM93.1187 273.517 99.0646 293.267 79.3153 299.213 73.3693 279.464ZM105.011 313.016 110.957 332.765 91.2073 338.711 85.2613 318.962ZM116.903 352.515 122.849 372.264 103.099 378.21 97.1533 358.461ZM128.795 392.013 134.741 411.763 114.991 417.709 109.045 397.959ZM140.687 431.512 146.633 451.261 126.883 457.207 120.937 437.458ZM152.579 471.011 158.525 490.76 138.775 496.706 132.829 476.957ZM164.471 510.509 170.417 530.259 150.667 536.205 144.721 516.455ZM176.363 550.008 182.309 569.757 162.559 575.703 156.613 555.954ZM188.255 589.507 194.201 609.256 174.451 615.202 168.505 595.453ZM200.147 629.005 206.093 648.755 186.343 654.701 180.397 634.951ZM212.039 668.504 217.985 688.253 198.235 694.199 192.289 674.45ZM223.931 708.003 229.877 727.752 210.127 733.698 204.181 713.949ZM247.441 665.763 226.59 752.607 161.259 691.71C157.093 687.827 156.863 681.301 160.747 677.135 164.63 672.969 171.156 672.74 175.322 676.623L227.721 725.466 210.662 730.602 227.385 660.948C228.715 655.41 234.283 651.998 239.821 653.328 245.359 654.658 248.77 660.225 247.441 665.763Z" fill="#CC605C" fill-rule="nonzero" fill-opacity="1" transform="matrix(-1 0 0 1 2427.08 877.5)"/><rect x="2249" y="1218" width="113" height="167" fill="#FFFFFF" fill-opacity="1"/><text fill="#CC605C" fill-opacity="1" font-family="Arial,Arial_MSFontService,sans-serif" font-style="normal" font-variant="normal" font-weight="700" font-stretch="normal" font-size="110" text-anchor="start" direction="ltr" writing-mode="lr-tb" unicode-bidi="normal" text-decoration="none" transform="matrix(1 0 0 1 2271.74 1342)">?</text></g></g></svg>